<svg width="146" height="46" viewBox="0 0 146 46" fill="none" xmlns="http://www.w3.org/2000/svg">
<path d="M44 14H36V45H44V14Z" fill="white"/>
<path d="M35 5.06397C35 7.75053 37.2601 10 40 10C42.8038 10 45 7.73987 45 5.06397C45 2.26013 42.8038 0 40 0C37.2601 0 35 2.26013 35 5.06397Z" fill="white"/>
<path d="M67 13.1241C66.3689 13.0564 65.7378 13 65.0402 13C62.3829 13 58.0758 13.7786 56.1713 17.9647V13.2482H48V45H56.426V30.4781C56.426 23.6403 60.1573 21.5078 64.4645 21.5078C65.2284 21.5078 66.0478 21.5755 67 21.7673V13.1241Z" fill="white"/>
<path d="M112 14H104V45H112V14Z" fill="white"/>
<path d="M103 5.06397C103 7.75053 105.433 10 108.384 10C111.402 10 120 5.06397 120 5.06397C120 5.06397 111.402 0 108.384 0C105.433 0 103 2.26013 103 5.06397Z" fill="#54C6C1"/>
<path d="M91.2664 1V17.1743C90.3613 15.5236 87.7707 13.308 82.2725 13.308C73.2787 13.308 67 20.4645 67 29.5931C67 39.0318 73.471 46 82.5327 46C86.809 46 90.0332 44.0945 91.4587 41.6241C91.4587 43.0864 91.651 44.6041 91.7868 45.2356H100C99.8756 43.9727 99.7398 41.6905 99.7398 39.5968V2.28508L91.2664 1ZM83.5622 38.4668C79.037 38.4668 75.6658 35.1765 75.6658 29.5931C75.6658 24.0096 79.1615 20.8523 83.5622 20.8523C87.963 20.8523 91.3908 23.9542 91.3908 29.5377C91.3908 35.1765 87.963 38.4668 83.5622 38.4668Z" fill="white"/>
<path d="M17.6772 13.2173C13.0648 13.2173 9.66621 15.2461 8.27586 17.4634V1L0 2.28603V45.235H8.14345V41.4324C9.78759 44.0931 13.0648 46 17.3572 46C26.1959 46 32 38.9601 32 29.5144C32 20.2572 26.7586 13.2173 17.6772 13.2173ZM15.9007 38.4501C11.6745 38.4501 8.13241 35.2129 8.13241 29.5698C8.13241 23.8603 11.6634 20.7561 15.9007 20.7561C20.1931 20.7561 23.6028 23.8603 23.6028 29.5698C23.6028 35.2794 20.1931 38.4501 15.9007 38.4501Z" fill="white"/>
<path d="M146 29.1296C146 19.1357 140.178 13 130.466 13C122.409 13 115 19.4452 115 29.3729C115 39.8643 122.61 46 131.238 46C138.971 46 143.955 41.5116 145.553 36.1387L138.457 34.0492C137.429 36.8352 135.261 38.792 131.293 38.792C127.069 38.792 123.56 35.8181 123.37 31.7055H145.866C145.877 31.595 146 30.3347 146 29.1296ZM123.56 25.9678C123.75 23.1266 126.186 19.8322 130.589 19.8322C135.451 19.8322 137.496 22.8724 137.619 25.9678H123.56Z" fill="white"/>
</svg>
